<svg width="40" height="40" viewBox="0 0 40 40" fill="none" xmlns="http://www.w3.org/2000/svg">
<path d="M20 0C8.95443 0 0 8.95443 0 20C0 31.0456 8.95443 40 20 40C31.0456 40 40 31.0456 40 20C39.9876 8.95964 31.0404 0.0123698 20 0ZM20 38.6667C9.69076 38.6667 1.33333 30.3092 1.33333 20C1.33333 9.69076 9.69076 1.33333 20 1.33333C30.3092 1.33333 38.6667 9.69076 38.6667 20C38.6549 30.3044 30.3044 38.6549 20 38.6667Z" fill="#666666"/>
<path d="M28.6667 10H11.3333C9.49316 10.002 8.00228 11.3065 8 12.9167V28.0833C8.00228 29.6935 9.49316 30.998 11.3333 31H28.6667C30.5068 30.998 31.9977 29.6935 32 28.0833V12.9167C31.9977 11.3065 30.5068 10.002 28.6667 10ZM30.6667 28.0833C30.6667 29.0498 29.7712 29.8333 28.6667 29.8333H11.3333C10.2288 29.8333 9.33333 29.0498 9.33333 28.0833V12.9167C9.33333 11.9502 10.2288 11.1667 11.3333 11.1667H28.6667C29.7712 11.1667 30.6667 11.9502 30.6667 12.9167V28.0833Z" fill="#666666"/>
<path d="M20.0002 14.6667C16.3182 14.6667 13.3335 17.2783 13.3335 20.5C13.3335 23.7217 16.3182 26.3333 20.0002 26.3333C23.6821 26.3333 26.6668 23.7217 26.6668 20.5C26.6629 17.2797 23.6805 14.6701 20.0002 14.6667ZM20.0002 25.1667C17.0545 25.1667 14.6668 23.0774 14.6668 20.5C14.6668 17.9226 17.0545 15.8333 20.0002 15.8333C22.9458 15.8333 25.3335 17.9226 25.3335 20.5C25.3302 23.076 22.9442 25.1638 20.0002 25.1667Z" fill="#666666"/>
<path d="M27.3335 12.3333C26.229 12.3333 25.3335 13.1169 25.3335 14.0833C25.3335 15.0498 26.229 15.8333 27.3335 15.8333C28.438 15.8333 29.3335 15.0498 29.3335 14.0833C29.3335 13.1169 28.438 12.3333 27.3335 12.3333ZM27.3335 14.6667C26.9653 14.6667 26.6668 14.4055 26.6668 14.0833C26.6668 13.7612 26.9653 13.5 27.3335 13.5C27.7017 13.5 28.0002 13.7612 28.0002 14.0833C28.0002 14.4055 27.7017 14.6667 27.3335 14.6667Z" fill="#666666"/>
</svg>
